<?xml version="1.0" standalone="no"?>
<!DOCTYPE svg PUBLIC "-//W3C//DTD SVG 20010904//EN"
 "http://www.w3.org/TR/2001/REC-SVG-20010904/DTD/svg10.dtd">
<svg version="1.0" xmlns="http://www.w3.org/2000/svg"
 width="815.000000pt" height="815.000000pt" viewBox="0 0 815.000000 815.000000"
 preserveAspectRatio="xMidYMid meet">
<metadata>
Created by potrace 1.14, written by Peter Selinger 2001-2017
</metadata>
<g transform="translate(0.000000,815.000000) scale(0.100000,-0.100000)"
fill="#000000" stroke="none">
<path d="M1580 7783 c-36 -7 -87 -21 -115 -30 -49 -15 -176 -76 -199 -93 -91
-74 -146 -120 -174 -149 -41 -43 -92 -115 -92 -130 0 -6 -4 -11 -9 -11 -10 0
-23 -50 -27 -105 -6 -95 41 -165 125 -184 25 -6 91 -13 146 -16 117 -6 127 -8
220 -29 200 -46 360 -147 550 -346 91 -95 132 -149 203 -262 52 -84 144 -258
136 -258 -4 0 -2 -6 4 -13 6 -7 27 -53 45 -103 19 -49 38 -98 42 -109 4 -11 9
-25 10 -31 3 -13 40 -136 61 -202 8 -23 14 -53 14 -66 0 -12 3 -26 7 -30 4 -3
8 -16 10 -29 2 -12 12 -58 23 -102 11 -44 22 -97 25 -119 4 -21 9 -48 12 -60
2 -11 6 -30 8 -41 4 -26 13 -73 20 -105 3 -14 7 -41 10 -60 2 -19 6 -46 9 -60
4 -23 11 -71 22 -160 2 -19 6 -48 9 -65 5 -40 14 -117 20 -190 3 -33 8 -82 10
-110 6 -63 13 -166 22 -325 9 -167 10 -986 0 -1180 -4 -85 -9 -191 -11 -235
-3 -44 -7 -114 -10 -155 -4 -41 -8 -104 -11 -140 -10 -130 -17 -207 -30 -325
-3 -27 -8 -77 -11 -110 -3 -33 -7 -76 -10 -95 -2 -19 -6 -62 -9 -95 -8 -85
-11 -113 -19 -170 -3 -27 -8 -75 -11 -105 -3 -30 -7 -66 -10 -80 -2 -14 -7
-52 -10 -85 -3 -33 -7 -71 -10 -85 -2 -14 -7 -47 -11 -75 -3 -27 -8 -59 -9
-70 -2 -11 -6 -45 -9 -75 -4 -30 -9 -62 -11 -70 -2 -8 -7 -39 -10 -69 -4 -30
-8 -61 -10 -70 -1 -9 -6 -36 -9 -61 -3 -25 -9 -56 -12 -70 -3 -14 -7 -70 -8
-124 -7 -188 46 -282 163 -291 40 -3 61 3 122 34 77 38 162 91 167 104 2 4 8
7 13 7 6 0 27 13 47 29 20 15 89 68 152 117 63 48 117 91 120 94 3 3 41 34 85
70 44 35 85 69 91 75 6 5 30 26 54 45 24 19 53 44 64 55 12 11 46 40 76 65 29
25 63 54 75 65 11 11 50 45 85 75 97 83 238 209 300 266 30 28 77 71 104 95
28 24 64 58 82 74 467 438 888 862 1224 1237 41 45 91 100 111 121 20 20 35
37 32 37 -2 0 3 8 13 17 23 23 264 327 348 438 37 50 73 97 79 105 90 114 319
442 447 640 52 80 90 141 106 170 10 19 22 37 25 40 29 26 384 696 393 744 2
6 14 36 28 66 14 30 31 71 38 90 7 19 19 49 26 65 21 51 84 232 90 260 1 6 10
33 19 60 10 28 20 64 22 80 3 17 9 38 14 48 5 9 7 17 5 17 -3 0 -1 11 4 26 6
14 12 39 15 57 3 18 10 52 15 77 5 25 12 63 15 85 6 48 13 88 21 135 9 57 13
403 4 451 -4 24 -11 64 -15 89 -12 77 -13 85 -15 85 -1 0 -3 9 -4 20 -3 27
-36 136 -47 157 -5 10 -9 23 -9 29 0 26 -123 260 -155 295 -5 6 -21 26 -35 45
-37 50 -181 189 -197 189 -7 0 -13 4 -13 8 0 5 -12 15 -27 23 -16 8 -30 16
-33 19 -18 18 -199 97 -240 105 -8 2 -33 8 -55 13 -111 29 -288 37 -348 16
-78 -27 -160 -108 -245 -240 -23 -36 -88 -177 -91 -197 0 -4 -8 -21 -16 -37
-8 -16 -15 -31 -14 -32 0 -2 -7 -30 -17 -63 -20 -68 -19 -65 -29 -125 -33
-200 -12 -325 67 -396 39 -35 79 -50 158 -59 98 -10 143 -18 180 -32 8 -4 20
-7 25 -8 20 -3 51 -16 133 -58 96 -47 194 -135 249 -223 84 -132 117 -236 118
-364 0 -95 -8 -160 -28 -210 -3 -8 -13 -40 -23 -70 -40 -128 -150 -367 -246
-535 -57 -97 -150 -247 -165 -263 -6 -6 -15 -21 -18 -32 -3 -11 -11 -20 -16
-20 -5 0 -9 -6 -9 -13 0 -8 -9 -22 -20 -32 -11 -10 -20 -22 -20 -27 0 -5 -5
-14 -10 -21 -13 -14 -79 -105 -100 -137 -8 -12 -19 -28 -25 -34 -5 -6 -21 -27
-35 -46 -13 -19 -28 -39 -32 -45 -4 -5 -44 -57 -88 -115 -82 -107 -127 -164
-145 -184 -6 -6 -38 -45 -70 -86 -33 -41 -69 -84 -80 -96 -11 -11 -38 -42 -60
-69 -22 -26 -65 -76 -96 -109 -31 -34 -68 -74 -83 -91 -213 -234 -733 -760
-985 -995 -73 -69 -156 -147 -185 -173 -28 -27 -86 -80 -129 -119 -43 -39 -97
-89 -120 -110 -64 -60 -96 -88 -172 -153 -38 -33 -72 -62 -75 -65 -3 -3 -17
-15 -31 -27 l-25 -23 2 43 c0 23 4 65 8 92 3 28 8 78 11 111 3 34 7 79 9 100
3 22 8 80 11 129 3 50 8 115 10 145 3 30 7 93 10 139 3 46 8 88 11 92 3 5 0 9
-6 9 -6 0 -8 5 -4 11 4 6 8 35 10 63 1 28 5 92 8 141 21 334 28 1198 12 1470
-12 221 -24 390 -26 390 0 0 -3 25 -5 56 -2 31 -6 77 -9 102 -3 25 -8 72 -11
104 -3 32 -8 69 -10 83 -3 14 -8 52 -11 85 -4 33 -8 63 -10 67 -3 4 -7 31 -10
60 -5 53 -11 93 -14 93 -1 0 -4 16 -7 35 -4 32 -58 302 -69 343 -2 9 -6 26 -8
37 -23 104 -122 422 -159 510 -6 14 -11 27 -12 30 -1 3 -9 23 -18 44 -71 162
-81 183 -150 306 -33 58 -146 231 -156 240 -4 3 -26 30 -51 60 -65 79 -154
168 -235 232 -84 67 -213 151 -232 151 -7 0 -13 3 -13 7 0 9 -124 61 -210 89
-62 20 -79 25 -139 37 -14 3 -27 7 -31 9 -4 2 -29 7 -56 10 -27 4 -60 9 -74
12 -59 12 -337 9 -400 -4z"/>
</g>
</svg>
